<svg width="122" height="39" version="1.1" xmlns="http://www.w3.org/2000/svg" desc="Created with imagetracer.js version 1.2.6" ><path fill="rgb(0,0,0)" stroke="rgb(0,0,0)" stroke-width="1" opacity="1" d="M 0 0 L 121.5 0 L 122 0.5 L 122 39 L 0.5 39 L 0 38.5 L 0 0 Z M 17 5 L 12 7 L 6 15 Q 5 22 7 26 L 15 32 Q 23 35 37 33 L 38 30 Q 36 26 30 28 L 33 22 Q 34 15 31 12 L 23 5 L 17 5 Z M 74 5 L 70 7 Q 65 10 63 17 Q 62 24 66 28 Q 69 32 75 33 Q 81 34 85 31 Q 89 28 91 22 Q 92 15 89 12 Q 86 4 74 5 Z M 94 5 L 94 32 L 107 32 L 110 31 L 116 24 Q 118 14 114 11 Q 108 3 94 5 Z M 38 14 Q 36 24 40 29 L 47 33 Q 53 34 57 31 L 61 22 L 61 14 L 56 14 L 56 24 L 55 26 L 51 29 L 46 28 L 42 23 L 42 14 L 38 14 Z " /><path fill="rgb(0,0,0)" stroke="rgb(0,0,0)" stroke-width="1" opacity="1" d="M 18.5 9 Q 25.8 9.3 28 14.5 L 29 19.5 L 24.5 27 L 15.5 28 L 12 26 Q 9.1 23.1 10 15.5 L 13.5 11 L 18.5 9 Z " /><path fill="rgb(0,0,0)" stroke="rgb(0,0,0)" stroke-width="1" opacity="1" d="M 75.5 9 Q 83.6 8.9 86 14.5 L 87 19.5 L 82.5 27 L 73.5 28 L 69 24.5 L 68 15.5 L 72.5 10 L 75.5 9 Z " /><path fill="rgb(0,0,0)" stroke="rgb(0,0,0)" stroke-width="1" opacity="1" d="M 98 9 L 106.5 10 L 111 14.5 L 112 21.5 L 107.5 27 L 98 28 L 98 9 Z " /><path fill="rgb(233,235,232)" stroke="rgb(233,235,232)" stroke-width="1" opacity="1" d="M 81.5 6 L 80.5 8 L 81.5 6 Z " /><path fill="rgb(233,235,232)" stroke="rgb(233,235,232)" stroke-width="1" opacity="1" d="M 14.5 7 L 23.5 7 L 25 8.5 L 23.5 9 L 20.5 8 L 14 8.5 L 14.5 10 L 10 12.5 L 8.5 16 L 8 13.5 L 10.5 9 L 14.5 7 Z " /><path fill="rgb(233,235,232)" stroke="rgb(233,235,232)" stroke-width="1" opacity="1" d="M 72.5 7 L 74 7.5 L 71 9 L 69.5 12 L 67 13.5 L 66.5 15 L 66 11 L 72.5 7 Z " /><path fill="rgb(233,235,232)" stroke="rgb(233,235,232)" stroke-width="1" opacity="1" d="M 83.5 7 L 87 11.5 L 85 12.5 Q 87.3 11.3 84.5 10 L 83 10.5 L 83.5 9 L 82 8.5 L 83.5 7 Z " /><path fill="rgb(233,235,232)" stroke="rgb(233,235,232)" stroke-width="1" opacity="1" d="M 109.5 9 L 112 9.5 L 111.5 12 Q 109.8 8.9 108 10.5 L 109.5 9 Z " /><path fill="rgb(233,235,232)" stroke="rgb(233,235,232)" stroke-width="1" opacity="1" d="M 26.5 11 L 30 12.5 L 27.5 13 L 26.5 11 Z " /><path fill="rgb(233,235,232)" stroke="rgb(233,235,232)" stroke-width="1" opacity="1" d="M 57.5 16 L 58 19.5 L 57 19.5 L 57.5 16 Z " /><path fill="rgb(233,235,232)" stroke="rgb(233,235,232)" stroke-width="1" opacity="1" d="M 7.5 19 L 10 22.5 L 9.5 24 Q 12.1 23.3 11 26 L 8 24.5 L 7 22.5 L 7 20.5 L 7.5 19 Z " /><path fill="rgb(233,235,232)" stroke="rgb(233,235,232)" stroke-width="1" opacity="1" d="M 39.5 22 L 42 23.5 L 40.5 24 L 39.5 22 Z " /><path fill="rgb(233,235,232)" stroke="rgb(233,235,232)" stroke-width="1" opacity="1" d="M 28 23 Q 30.7 21.9 30 24.5 L 28 28.5 L 32 30.5 L 15.5 31 L 15.5 30 Q 25.2 31.2 28 25.5 L 28 23 Z " /><path fill="rgb(233,235,232)" stroke="rgb(233,235,232)" stroke-width="1" opacity="1" d="M 87.5 24 L 87 25.5 L 83.5 30 Q 80.2 28.9 81 31.5 L 77 30.5 Q 78.3 27.8 79.5 30 Q 85.3 28.8 87.5 24 Z " /><path fill="rgb(233,235,232)" stroke="rgb(233,235,232)" stroke-width="1" opacity="1" d="M 112.5 24 L 113 25.5 L 109.5 30 L 107.5 30 L 104.5 31 L 105.5 29 L 111 26.5 L 110.5 25 L 112.5 24 Z " /><path fill="rgb(233,235,232)" stroke="rgb(233,235,232)" stroke-width="1" opacity="1" d="M 57.5 25 L 58 26.5 L 52.5 31 L 53 29.5 Q 52.3 27.3 54.5 28 L 57.5 25 Z " /><path fill="rgb(233,235,232)" stroke="rgb(233,235,232)" stroke-width="1" opacity="1" d="M 41.5 26 L 47 30.5 L 45.5 31 L 43 30.5 L 41.5 26 Z " /><path fill="rgb(233,235,232)" stroke="rgb(233,235,232)" stroke-width="1" opacity="1" d="M 71.5 29 L 74.5 30 L 76 29.5 Q 76.8 32.1 73.5 31 L 71.5 29 Z " /><path fill="rgb(243,243,242)" stroke="rgb(243,243,242)" stroke-width="1" opacity="1" d="M 95.5 6 L 105 6.5 L 95.5 7 L 95.5 6 Z " /><path fill="rgb(243,243,242)" stroke="rgb(243,243,242)" stroke-width="1" opacity="1" d="M 69.5 8 L 67.5 11 L 69.5 8 Z " /><path fill="rgb(243,243,242)" stroke="rgb(243,243,242)" stroke-width="1" opacity="1" d="M 84.5 8 L 87.5 12 L 84.5 8 Z " /><path fill="rgb(243,243,242)" stroke="rgb(243,243,242)" stroke-width="1" opacity="1" d="M 96.5 11 L 97 27.5 L 96 27.5 L 96.5 11 Z " /><path fill="rgb(243,243,242)" stroke="rgb(243,243,242)" stroke-width="1" opacity="1" d="M 7.5 14 Q 9.8 15.8 9 20.5 L 8 20.5 L 7.5 14 Z " /><path fill="rgb(243,243,242)" stroke="rgb(243,243,242)" stroke-width="1" opacity="1" d="M 58.5 15 Q 61.5 14.5 60 21.5 L 59 21.5 L 58.5 15 Z " /><path fill="rgb(243,243,242)" stroke="rgb(243,243,242)" stroke-width="1" opacity="1" d="M 89.5 15 L 90 21.5 L 89 21.5 L 89.5 15 Z " /><path fill="rgb(243,243,242)" stroke="rgb(243,243,242)" stroke-width="1" opacity="1" d="M 66.5 16 L 67 21.5 L 66 21.5 L 66.5 16 Z " /><path fill="rgb(243,243,242)" stroke="rgb(243,243,242)" stroke-width="1" opacity="1" d="M 31.5 17 L 32 19.5 L 31 19.5 L 31.5 17 Z " /><path fill="rgb(243,243,242)" stroke="rgb(243,243,242)" stroke-width="1" opacity="1" d="M 40.5 17 L 41 21.5 L 40 21.5 L 40.5 17 Z " /><path fill="rgb(243,243,242)" stroke="rgb(243,243,242)" stroke-width="1" opacity="1" d="M 64.5 17 L 65 19.5 L 64 19.5 L 64.5 17 Z " /><path fill="rgb(243,243,242)" stroke="rgb(243,243,242)" stroke-width="1" opacity="1" d="M 114.5 21 L 115 23.5 L 114 23.5 L 114.5 21 Z " /><path fill="rgb(243,243,242)" stroke="rgb(243,243,242)" stroke-width="1" opacity="1" d="M 86.5 24 L 83.5 28 L 86.5 24 Z " /><path fill="rgb(243,243,242)" stroke="rgb(243,243,242)" stroke-width="1" opacity="1" d="M 8.5 25 Q 10.3 28.1 12 26.5 L 11 27.5 L 12.5 30 L 8.5 25 Z " /><path fill="rgb(243,243,242)" stroke="rgb(243,243,242)" stroke-width="1" opacity="1" d="M 68.5 25 L 70.5 28 L 68.5 25 Z " /><path fill="rgb(243,243,242)" stroke="rgb(243,243,242)" stroke-width="1" opacity="1" d="M 42.5 26 L 44.5 29 L 42.5 26 Z " /><path fill="rgb(243,243,242)" stroke="rgb(243,243,242)" stroke-width="1" opacity="1" d="M 109.5 26 L 108.5 28 L 109.5 26 Z " /><path fill="rgb(243,243,242)" stroke="rgb(243,243,242)" stroke-width="1" opacity="1" d="M 111.5 27 L 110.5 29 L 111.5 27 Z " /><path fill="rgb(243,243,242)" stroke="rgb(243,243,242)" stroke-width="1" opacity="1" d="M 36.5 29 L 37 32 L 17 31.5 L 36 31 L 36.5 29 Z " /><path fill="rgb(243,243,242)" stroke="rgb(243,243,242)" stroke-width="1" opacity="1" d="M 98.5 29 L 104 29.5 L 98.5 30 L 98.5 29 Z " /><path fill="rgb(243,243,242)" stroke="rgb(243,243,242)" stroke-width="1" opacity="1" d="M 46.5 31 L 53 31.5 L 46.5 32 L 46.5 31 Z " /><path fill="rgb(243,243,242)" stroke="rgb(243,243,242)" stroke-width="1" opacity="1" d="M 74.5 31 L 80 31.5 L 74.5 32 L 74.5 31 Z " /><path fill="rgb(118,119,119)" stroke="rgb(118,119,119)" stroke-width="1" opacity="1" d="M 94.5 5 L 103 5.5 L 94.5 6 L 94.5 5 Z " /><path fill="rgb(118,119,119)" stroke="rgb(118,119,119)" stroke-width="1" opacity="1" d="M 10.5 8 L 9.5 10 L 10.5 8 Z " /><path fill="rgb(118,119,119)" stroke="rgb(118,119,119)" stroke-width="1" opacity="1" d="M 71.5 10 L 69.5 13 L 71.5 10 Z " /><path fill="rgb(118,119,119)" stroke="rgb(118,119,119)" stroke-width="1" opacity="1" d="M 38.5 14 L 41 14.5 L 38.5 15 L 38.5 14 Z " /><path fill="rgb(118,119,119)" stroke="rgb(118,119,119)" stroke-width="1" opacity="1" d="M 57.5 14 L 60 14.5 L 57.5 15 L 57.5 14 Z " /><path fill="rgb(118,119,119)" stroke="rgb(118,119,119)" stroke-width="1" opacity="1" d="M 9.5 17 L 10 19.5 L 9 19.5 L 9.5 17 Z " /><path fill="rgb(118,119,119)" stroke="rgb(118,119,119)" stroke-width="1" opacity="1" d="M 32.5 17 L 33 20.5 L 32 20.5 L 32.5 17 Z " /><path fill="rgb(118,119,119)" stroke="rgb(118,119,119)" stroke-width="1" opacity="1" d="M 110.5 24 L 108.5 27 L 110.5 24 Z " /><path fill="rgb(118,119,119)" stroke="rgb(118,119,119)" stroke-width="1" opacity="1" d="M 84.5 25 L 83.5 27 L 84.5 25 Z " /><path fill="rgb(118,119,119)" stroke="rgb(118,119,119)" stroke-width="1" opacity="1" d="M 67.5 28 L 68.5 30 L 67.5 28 Z " /><path fill="rgb(118,119,119)" stroke="rgb(118,119,119)" stroke-width="1" opacity="1" d="M 99.5 28 L 104 28.5 L 99.5 29 L 99.5 28 Z " /><path fill="rgb(118,119,119)" stroke="rgb(118,119,119)" stroke-width="1" opacity="1" d="M 47.5 32 L 51 32.5 L 47.5 33 L 47.5 32 Z " /><path fill="rgb(118,119,119)" stroke="rgb(118,119,119)" stroke-width="1" opacity="1" d="M 75.5 32 L 79 32.5 L 75.5 33 L 75.5 32 Z " /><path fill="rgb(166,167,166)" stroke="rgb(166,167,166)" stroke-width="1" opacity="1" d="M 18.5 5 L 21 5.5 L 18.5 6 L 18.5 5 Z " /><path fill="rgb(166,167,166)" stroke="rgb(166,167,166)" stroke-width="1" opacity="1" d="M 27.5 8 L 28.5 10 L 27.5 8 Z " /><path fill="rgb(166,167,166)" stroke="rgb(166,167,166)" stroke-width="1" opacity="1" d="M 68.5 8 L 67.5 10 L 68.5 8 Z " /><path fill="rgb(166,167,166)" stroke="rgb(166,167,166)" stroke-width="1" opacity="1" d="M 97.5 9 L 98 28.5 L 97 28.5 L 97.5 9 Z " /><path fill="rgb(166,167,166)" stroke="rgb(166,167,166)" stroke-width="1" opacity="1" d="M 13.5 10 L 11.5 13 L 13.5 10 Z " /><path fill="rgb(166,167,166)" stroke="rgb(166,167,166)" stroke-width="1" opacity="1" d="M 41.5 15 L 42 20.5 L 41 20.5 L 41.5 15 Z " /><path fill="rgb(166,167,166)" stroke="rgb(166,167,166)" stroke-width="1" opacity="1" d="M 112.5 17 L 113 19.5 L 112 19.5 L 112.5 17 Z " /><path fill="rgb(166,167,166)" stroke="rgb(166,167,166)" stroke-width="1" opacity="1" d="M 69.5 25 L 70.5 27 L 69.5 25 Z " /><path fill="rgb(53,53,53)" stroke="rgb(53,53,53)" stroke-width="1" opacity="1" d="M 111.5 8 L 113.5 11 L 111.5 8 Z " /><path fill="rgb(53,53,53)" stroke="rgb(53,53,53)" stroke-width="1" opacity="1" d="M 25.5 11 L 26.5 13 L 25.5 11 Z " /><path fill="rgb(53,53,53)" stroke="rgb(53,53,53)" stroke-width="1" opacity="1" d="M 83.5 11 L 84.5 13 L 83.5 11 Z " /><path fill="rgb(53,53,53)" stroke="rgb(53,53,53)" stroke-width="1" opacity="1" d="M 108.5 11 L 110.5 14 L 108.5 11 Z " /><path fill="rgb(53,53,53)" stroke="rgb(53,53,53)" stroke-width="1" opacity="1" d="M 56.5 14 L 57 20.5 L 56 20.5 L 56.5 14 Z " /><path fill="rgb(53,53,53)" stroke="rgb(53,53,53)" stroke-width="1" opacity="1" d="M 60.5 14 L 61 21.5 L 60 21.5 L 60.5 14 Z " /><path fill="rgb(53,53,53)" stroke="rgb(53,53,53)" stroke-width="1" opacity="1" d="M 63.5 16 L 64 21.5 L 63 21.5 L 63.5 16 Z " /><path fill="rgb(53,53,53)" stroke="rgb(53,53,53)" stroke-width="1" opacity="1" d="M 67.5 17 L 68 19.5 L 67 19.5 L 67.5 17 Z " /><path fill="rgb(53,53,53)" stroke="rgb(53,53,53)" stroke-width="1" opacity="1" d="M 54.5 26 L 53.5 28 L 54.5 26 Z " /><path fill="rgb(53,53,53)" stroke="rgb(53,53,53)" stroke-width="1" opacity="1" d="M 29.5 27 Q 31 29.5 36.5 28 L 38 29.5 L 36.5 33 L 18 32.5 L 37 32 L 37 29 L 29.5 29 L 29.5 27 Z " /><path fill="rgb(53,53,53)" stroke="rgb(53,53,53)" stroke-width="1" opacity="1" d="M 75.5 28 L 79 28.5 L 75.5 29 L 75.5 28 Z " /><path fill="rgb(53,53,53)" stroke="rgb(53,53,53)" stroke-width="1" opacity="1" d="M 57.5 29 L 56.5 31 L 57.5 29 Z " /><path fill="rgb(236,238,238)" stroke="rgb(236,238,238)" stroke-width="1" opacity="1" d="M 15.5 6 L 22 6.5 L 15.5 7 L 15.5 6 Z " /><path fill="rgb(236,238,238)" stroke="rgb(236,238,238)" stroke-width="1" opacity="1" d="M 74 6 Q 78.6 4.8 80 7.5 L 74 8 L 74 6 Z " /><path fill="rgb(236,238,238)" stroke="rgb(236,238,238)" stroke-width="1" opacity="1" d="M 24.5 7 L 29 10.5 L 25.5 11 L 24 9.5 L 24.5 7 Z " /><path fill="rgb(236,238,238)" stroke="rgb(236,238,238)" stroke-width="1" opacity="1" d="M 95.5 7 L 97.5 7 Q 105.7 5.9 109 8 L 109.5 10 Q 111.2 7.3 113 11.5 L 115 14.5 L 113.5 15 L 111 14 L 107.5 9 L 97 8 L 96 11.5 L 96 27.5 Q 97.3 31.3 103.5 30 Q 104.8 27.8 106 30.5 L 103.5 31 L 95 31 L 95.5 7 Z " /><path fill="rgb(236,238,238)" stroke="rgb(236,238,238)" stroke-width="1" opacity="1" d="M 83.5 9 L 88 12.5 L 86.5 13 L 83.5 9 Z " /><path fill="rgb(236,238,238)" stroke="rgb(236,238,238)" stroke-width="1" opacity="1" d="M 29.5 13 L 32 16.5 L 31 19.5 L 32 21.5 L 29.5 26 L 30 24.5 L 29 22.5 L 30 17.5 L 29 14.5 L 29.5 13 Z " /><path fill="rgb(236,238,238)" stroke="rgb(236,238,238)" stroke-width="1" opacity="1" d="M 65.5 13 L 67 15.5 Q 64.8 16.8 66 21.5 L 68 24.5 L 66 25 L 64 20.5 L 65.5 13 Z " /><path fill="rgb(236,238,238)" stroke="rgb(236,238,238)" stroke-width="1" opacity="1" d="M 57.5 15 L 59 16.5 Q 57.7 21.3 60 22.5 L 59 25 Q 56.3 26.1 57 23.5 L 58 21.5 L 58 19.5 L 57.5 15 Z " /><path fill="rgb(236,238,238)" stroke="rgb(236,238,238)" stroke-width="1" opacity="1" d="M 7.5 16 L 8 18.5 L 7 18.5 L 7.5 16 Z " /><path fill="rgb(236,238,238)" stroke="rgb(236,238,238)" stroke-width="1" opacity="1" d="M 39 16 L 41 16.5 L 39.5 22 L 39 16 Z " /><path fill="rgb(236,238,238)" stroke="rgb(236,238,238)" stroke-width="1" opacity="1" d="M 88.5 16 L 89 20.5 L 88 20.5 L 88.5 16 Z " /><path fill="rgb(236,238,238)" stroke="rgb(236,238,238)" stroke-width="1" opacity="1" d="M 113.5 17 Q 116.5 16.1 115 20.5 L 113.5 25 Q 110.8 23.7 113 22.5 L 114 18.5 L 113.5 17 Z " /><path fill="rgb(236,238,238)" stroke="rgb(236,238,238)" stroke-width="1" opacity="1" d="M 88.5 22 L 90 22.5 L 87.5 24 L 88.5 22 Z " /><path fill="rgb(236,238,238)" stroke="rgb(236,238,238)" stroke-width="1" opacity="1" d="M 40.5 24 L 41.5 26 Q 38.7 26.7 40.5 24 Z " /><path fill="rgb(236,238,238)" stroke="rgb(236,238,238)" stroke-width="1" opacity="1" d="M 27.5 25 L 25.5 28 L 27.5 25 Z " /><path fill="rgb(236,238,238)" stroke="rgb(236,238,238)" stroke-width="1" opacity="1" d="M 10.5 26 L 17 29.5 L 13.5 30 L 10.5 26 Z " /><path fill="rgb(236,238,238)" stroke="rgb(236,238,238)" stroke-width="1" opacity="1" d="M 67.5 26 L 74 29.5 L 71.5 31 L 68 29 L 67.5 26 Z " /><path fill="rgb(236,238,238)" stroke="rgb(236,238,238)" stroke-width="1" opacity="1" d="M 56.5 28 L 55.5 30 L 56.5 28 Z " /><path fill="rgb(236,238,238)" stroke="rgb(236,238,238)" stroke-width="1" opacity="1" d="M 107.5 28 L 108.5 30 L 107.5 28 Z " /><path fill="rgb(236,238,238)" stroke="rgb(236,238,238)" stroke-width="1" opacity="1" d="M 19.5 29 L 22 29.5 L 19.5 30 L 19.5 29 Z " /><path fill="rgb(236,238,238)" stroke="rgb(236,238,238)" stroke-width="1" opacity="1" d="M 30.5 29 L 36 29.5 L 34.5 31 L 31.5 30 L 30.5 29 Z " /><path fill="rgb(236,238,238)" stroke="rgb(236,238,238)" stroke-width="1" opacity="1" d="M 45.5 29 L 44.5 31 L 45.5 29 Z " /><path fill="rgb(236,238,238)" stroke="rgb(236,238,238)" stroke-width="1" opacity="1" d="M 80.5 29 L 81.5 31 L 80.5 29 Z " /><path fill="rgb(236,238,238)" stroke="rgb(236,238,238)" stroke-width="1" opacity="1" d="M 47.5 30 L 52 30.5 L 47.5 31 L 47.5 30 Z " /><path fill="rgb(224,224,223)" stroke="rgb(224,224,223)" stroke-width="1" opacity="1" d="M 109.5 11 L 110.5 13 L 109.5 11 Z " /><path fill="rgb(224,224,223)" stroke="rgb(224,224,223)" stroke-width="1" opacity="1" d="M 38.5 15 L 39 19.5 L 38 19.5 L 38.5 15 Z " /><path fill="rgb(224,224,223)" stroke="rgb(224,224,223)" stroke-width="1" opacity="1" d="M 6.5 17 L 7 20.5 L 6 20.5 L 6.5 17 Z " /><path fill="rgb(224,224,223)" stroke="rgb(224,224,223)" stroke-width="1" opacity="1" d="M 29.5 17 L 30 19.5 L 29 19.5 L 29.5 17 Z " /><path fill="rgb(224,224,223)" stroke="rgb(224,224,223)" stroke-width="1" opacity="1" d="M 11.5 25 L 12.5 27 L 11.5 25 Z " /><path fill="rgb(224,224,223)" stroke="rgb(224,224,223)" stroke-width="1" opacity="1" d="M 95.5 31 L 103 31.5 L 95.5 32 L 95.5 31 Z " /><path fill="rgb(203,204,204)" stroke="rgb(203,204,204)" stroke-width="1" opacity="1" d="M 94.5 6 L 95 31.5 L 94 31.5 L 94.5 6 Z " /><path fill="rgb(203,204,204)" stroke="rgb(203,204,204)" stroke-width="1" opacity="1" d="M 75.5 8 L 79 8.5 L 75.5 9 L 75.5 8 Z " /><path fill="rgb(203,204,204)" stroke="rgb(203,204,204)" stroke-width="1" opacity="1" d="M 85.5 8 L 87.5 11 L 85.5 8 Z " /><path fill="rgb(203,204,204)" stroke="rgb(203,204,204)" stroke-width="1" opacity="1" d="M 98.5 8 L 102 8.5 L 98.5 9 L 98.5 8 Z " /><path fill="rgb(203,204,204)" stroke="rgb(203,204,204)" stroke-width="1" opacity="1" d="M 9.5 27 L 10.5 29 L 9.5 27 Z " /><path fill="rgb(203,204,204)" stroke="rgb(203,204,204)" stroke-width="1" opacity="1" d="M 112.5 27 L 111.5 29 L 112.5 27 Z " /><path fill="rgb(203,204,204)" stroke="rgb(203,204,204)" stroke-width="1" opacity="1" d="M 57.5 28 L 55.5 31 L 57.5 28 Z " /><path fill="rgb(203,204,204)" stroke="rgb(203,204,204)" stroke-width="1" opacity="1" d="M 48.5 29 L 51 29.5 L 48.5 30 L 48.5 29 Z " /></svg>